<svg width="61" height="42" viewBox="0 0 61 42" fill="none" xmlns="http://www.w3.org/2000/svg">
<path fill-rule="evenodd" clip-rule="evenodd" d="M60.7446 21.0002C60.7387 24.5331 59.833 28.0063 58.113 31.0922C56.3929 34.1781 53.9152 36.7751 50.9135 38.6382C47.9117 40.5012 44.4849 41.569 40.9562 41.7409C37.4275 41.9127 33.9131 41.1829 30.7446 39.6202C27.5796 41.1721 24.0715 41.8924 20.5511 41.7134C17.0306 41.5344 13.6137 40.462 10.6224 38.5971C7.63109 36.7323 5.1639 34.1364 3.45334 31.0543C1.74279 27.9722 0.845215 24.5052 0.845215 20.9802C0.845215 17.4552 1.74279 13.9883 3.45334 10.9061C5.1639 7.82399 7.63109 5.22816 10.6224 3.36331C13.6137 1.49846 17.0306 0.425994 20.5511 0.247C24.0715 0.0680061 27.5796 0.788376 30.7446 2.34022C33.9179 0.793392 37.4318 0.0772014 40.9573 0.258713C44.4829 0.440225 47.9047 1.5135 50.9023 3.37803C53.9 5.24257 56.3754 7.83737 58.0968 10.9194C59.8182 14.0015 60.7292 17.47 60.7446 21.0002ZM56.7446 21.0002C56.7393 16.578 54.9802 12.3385 51.8533 9.21152C48.7263 6.08456 44.4868 4.32551 40.0646 4.32022C38.3328 4.27637 36.6049 4.50586 34.9446 5.00022C38.1622 7.68767 40.4795 11.2962 41.5846 15.3402H37.3046C36.0879 11.9181 33.7838 8.98877 30.7446 7.00022C27.7223 9.00144 25.4392 11.9379 24.2446 15.3602H19.9646C21.097 11.3179 23.4172 7.70868 26.6246 5.00022C24.9848 4.49806 23.2795 4.24193 21.5646 4.24022C17.1408 4.24022 12.8981 5.99757 9.77004 9.12568C6.64193 12.2538 4.88458 16.4964 4.88458 20.9202C4.88458 25.344 6.64193 29.5867 9.77004 32.7148C12.8981 35.8429 17.1408 37.6002 21.5646 37.6002C23.254 37.6078 24.9343 37.3514 26.5446 36.8402C24.4408 35.0753 22.7138 32.905 21.4665 30.4585C20.2192 28.012 19.4772 25.3395 19.2846 22.6002H29.1646V26.6002H24.3446C25.5912 29.875 27.8374 32.6741 30.7646 34.6002C33.6918 32.6741 35.938 29.875 37.1846 26.6002H32.3646V22.6002H42.2446C42.0278 25.3365 41.267 28.002 40.0065 30.4404C38.7461 32.8788 37.0116 35.041 34.9046 36.8002C36.541 37.3215 38.2471 37.5913 39.9646 37.6002C42.1596 37.624 44.3376 37.2122 46.3724 36.3887C48.4072 35.5651 50.2585 34.3461 51.8191 32.8023C53.3797 31.2585 54.6185 29.4204 55.464 27.3946C56.3094 25.3688 56.7447 23.1954 56.7446 21.0002Z" fill="black"/>
</svg>
