<svg width="81" height="80" viewBox="0 0 81 80" fill="none" xmlns="http://www.w3.org/2000/svg">
<path fill-rule="evenodd" clip-rule="evenodd" d="M14.9283 44.5577C14.3107 44.5577 13.8272 44.9898 13.8272 45.6202C13.8272 46.2511 14.3132 46.6806 14.9283 46.6806C15.5429 46.6806 16.0294 46.2482 16.0294 45.6202C16.0294 44.9898 15.5454 44.5577 14.9283 44.5577ZM14.9283 46.3768C14.4879 46.3768 14.1613 46.0552 14.1613 45.6202C14.1613 45.1857 14.4854 44.8615 14.9283 44.8615C15.3657 44.8615 15.6948 45.1907 15.6948 45.6202C15.6948 46.0473 15.3628 46.3768 14.9283 46.3768ZM25.6423 40.8415H20.2822L20.8915 31.5249L17.4106 40.8415H12.4331L20.3308 19.7832H25.627L25.0156 29.2277L28.5625 19.7832H33.5404L25.6423 40.8415ZM26.289 40.8415L34.1862 19.7832H39.1637L31.2664 40.8415H26.289Z" fill="black"/>
<path fill-rule="evenodd" clip-rule="evenodd" d="M11.8593 33.583C4.90378 41.7512 -1.65747 52.6197 4.13805 57.6246C9.75385 62.4746 16.7733 59.603 21.5594 57.6885C26.3456 55.7739 79.2469 32.801 79.2469 32.801C79.7574 32.5458 79.6619 32.2266 79.0236 32.386C78.7663 32.4503 21.432 47.9883 21.432 47.9883C14.1565 50.0307 5.86085 45.5795 11.8593 33.583Z" fill="black"/>
<path fill-rule="evenodd" clip-rule="evenodd" d="M15.1159 45.6953C15.2703 45.6878 15.391 45.6081 15.391 45.3944C15.391 45.1188 15.2109 45.0495 14.91 45.0495H14.4775V46.1921H14.766V45.7057H14.8145L15.0773 46.1921H15.4089L15.1159 45.6953ZM14.9308 45.5102H14.7664V45.245H14.905C14.9901 45.245 15.0876 45.2549 15.0876 45.3658C15.0876 45.4845 15.0312 45.5102 14.9308 45.5102ZM64.9637 19.7192C64.3462 19.7192 63.8627 20.1517 63.8627 20.7817C63.8627 21.4122 64.3491 21.8417 64.9637 21.8417C65.5784 21.8417 66.0648 21.4092 66.0648 20.7817C66.0652 20.1517 65.5817 19.7192 64.9637 19.7192ZM64.9637 21.5387C64.5234 21.5387 64.1968 21.2171 64.1968 20.7821C64.1968 20.3476 64.5209 20.0235 64.9637 20.0235C65.4012 20.0235 65.7307 20.3526 65.7307 20.7821C65.7307 21.2092 65.3987 21.5387 64.9637 21.5387Z" fill="black"/>
<path fill-rule="evenodd" clip-rule="evenodd" d="M65.1519 20.8561C65.3062 20.8486 65.4274 20.7689 65.4274 20.5552C65.4274 20.2796 65.2469 20.2103 64.9464 20.2103H64.5139V21.3524H64.802V20.8664H64.8509L65.1133 21.3524H65.4453L65.1519 20.8561ZM64.9663 20.671H64.802V20.4058H64.941C65.0257 20.4058 65.1236 20.4161 65.1236 20.5269C65.1236 20.6452 65.0668 20.671 64.9663 20.671ZM61.6842 23.2931L63.0219 19.7832H47.8342L42.6193 26.1008L45.0269 19.7832H39.9855L32.1514 40.8415H37.1289L40.4736 32.0354L40.7027 40.8415L55.9755 40.8083L57.4293 36.7576H51.6226L53.5305 31.6527H58.3163L59.7888 27.7282H55.0031L56.6437 23.2931H61.6842ZM45.6408 39.4375L45.3216 28.4619L52.8474 20.1991L45.6408 39.4375Z" fill="black"/>
</svg>
